<svg width="20" height="20" viewBox="0 0 20 20" fill="none" xmlns="http://www.w3.org/2000/svg">
<circle cx="10" cy="10" r="10" fill="#02007C"/>
<path fill-rule="evenodd" clip-rule="evenodd" d="M9.99977 6.0332C10.1501 6.0332 10.2942 6.09291 10.4005 6.19918C10.5067 6.30545 10.5664 6.44958 10.5664 6.59987V13.3999C10.5664 13.5502 10.5067 13.6943 10.4005 13.8006C10.2942 13.9068 10.1501 13.9665 9.99977 13.9665C9.84948 13.9665 9.70535 13.9068 9.59908 13.8006C9.49281 13.6943 9.43311 13.5502 9.43311 13.3999V6.59987C9.43311 6.44958 9.49281 6.30545 9.59908 6.19918C9.70535 6.09291 9.84948 6.0332 9.99977 6.0332Z" fill="white"/>
<path fill-rule="evenodd" clip-rule="evenodd" d="M6.0332 9.99977C6.0332 9.84948 6.09291 9.70535 6.19918 9.59908C6.30545 9.49281 6.44958 9.43311 6.59987 9.43311H13.3999C13.5502 9.43311 13.6943 9.49281 13.8006 9.59908C13.9068 9.70535 13.9665 9.84948 13.9665 9.99977C13.9665 10.1501 13.9068 10.2942 13.8006 10.4005C13.6943 10.5067 13.5502 10.5664 13.3999 10.5664H6.59987C6.44958 10.5664 6.30545 10.5067 6.19918 10.4005C6.09291 10.2942 6.0332 10.1501 6.0332 9.99977Z" fill="white"/>
</svg>
