<svg width="14" height="16" viewBox="0 0 14 16" fill="none" xmlns="http://www.w3.org/2000/svg">
<path d="M11.2782 15.3846C11.8479 15.3838 12.3939 15.1571 12.7966 14.7542C13.1994 14.3514 13.4259 13.8053 13.4265 13.2357V2.76305C13.4257 2.1937 13.1992 1.64789 12.7966 1.2453C12.394 0.842706 11.8482 0.61617 11.2788 0.615356H2.72131C2.15174 0.616008 1.60569 0.842556 1.20294 1.2453C0.800198 1.64805 0.57365 2.1941 0.572998 2.76366V13.2357C0.573649 13.8053 0.800178 14.3514 1.2029 14.7542C1.60563 15.1571 2.15168 15.3838 2.72131 15.3846H11.2782ZM1.80438 13.2357V2.76305C1.80438 2.25843 2.21608 1.84613 2.72131 1.84613H11.2782C11.7841 1.84613 12.1958 2.25782 12.1958 2.76366V13.2357C12.1958 13.7421 11.7841 14.1538 11.2788 14.1538H2.72131C2.47795 14.1535 2.24467 14.0566 2.07265 13.8845C1.90063 13.7124 1.80455 13.479 1.80438 13.2357Z" fill="#02007C"/>
<path d="M6.97003 11.523H4.25249C4.08928 11.523 3.93275 11.5879 3.81735 11.7033C3.70194 11.8187 3.6371 11.9752 3.6371 12.1384C3.6371 12.3016 3.70194 12.4582 3.81735 12.5736C3.93275 12.689 4.08928 12.7538 4.25249 12.7538H6.97003C7.13324 12.7538 7.28976 12.689 7.40517 12.5736C7.52058 12.4582 7.58541 12.3016 7.58541 12.1384C7.58541 11.9752 7.52058 11.8187 7.40517 11.7033C7.28976 11.5879 7.13324 11.523 6.97003 11.523ZM9.74787 8.58273H4.25249C4.08928 8.58273 3.93275 8.64756 3.81735 8.76297C3.70194 8.87838 3.6371 9.0349 3.6371 9.19811C3.6371 9.36132 3.70194 9.51785 3.81735 9.63326C3.93275 9.74866 4.08928 9.8135 4.25249 9.8135H9.74787C9.91108 9.8135 10.0676 9.74866 10.183 9.63326C10.2984 9.51785 10.3633 9.36132 10.3633 9.19811C10.3633 9.0349 10.2984 8.87838 10.183 8.76297C10.0676 8.64756 9.91108 8.58273 9.74787 8.58273ZM4.33803 6.97473L5.88572 5.35934L7.80203 6.58027C8.05372 6.7415 8.3891 6.69657 8.59033 6.47257L10.5645 4.27196C10.6199 4.21208 10.6629 4.14177 10.691 4.06512C10.719 3.98847 10.7315 3.907 10.7277 3.82547C10.724 3.74394 10.7041 3.66398 10.6691 3.59023C10.6341 3.51647 10.5849 3.45041 10.5241 3.39589C10.4634 3.34136 10.3924 3.29946 10.3154 3.27262C10.2383 3.24579 10.1566 3.23455 10.0752 3.23957C9.99372 3.24459 9.91407 3.26576 9.84087 3.30185C9.76767 3.33794 9.70238 3.38824 9.6488 3.4498L8.02295 5.26211L6.12141 4.0498C6.00125 3.97392 5.85863 3.94173 5.71752 3.95865C5.57642 3.97558 5.44545 4.04058 5.34664 4.14273L3.44941 6.12304C3.39345 6.18138 3.34953 6.25018 3.32015 6.3255C3.29078 6.40083 3.27652 6.4812 3.27821 6.56203C3.2799 6.64286 3.29749 6.72256 3.32998 6.79659C3.36246 6.87063 3.40922 6.93753 3.46757 6.9935C3.52591 7.04946 3.59471 7.09338 3.67003 7.12276C3.74536 7.15213 3.82573 7.16638 3.90656 7.1647C3.98739 7.16301 4.06709 7.14542 4.14112 7.11293C4.21516 7.08044 4.28206 7.03369 4.33803 6.97534V6.97473Z" fill="#02007C"/>
</svg>
