<svg width="154" height="38" viewBox="0 0 154 38" fill="none" xmlns="http://www.w3.org/2000/svg">
<path d="M17.756 7.43231V2.68231H2.35596V35.3176H17.756V30.5676C14.6013 30.5676 11.5757 29.3488 9.34507 27.1795C7.11437 25.0101 5.86118 22.0679 5.86118 19C5.86118 15.932 7.11437 12.9897 9.34507 10.8204C11.5757 8.65105 14.6013 7.43231 17.756 7.43231Z" fill="#02007C"/>
<path d="M17.7559 7.43231V30.5676C20.9106 30.5676 23.9361 29.3488 26.1668 27.1795C28.3975 25.0101 29.6506 22.0679 29.6506 19C29.6506 15.932 28.3975 12.9897 26.1668 10.8204C23.9361 8.65105 20.9106 7.43231 17.7559 7.43231Z" fill="#02007C"/>
<path d="M38.2932 10.3383H41.741V26.4883H38.2932V10.3383Z" fill="#02007C"/>
<path d="M43.6717 20.9559C43.6717 19.794 44.0265 18.6582 44.691 17.6926C45.3555 16.7269 46.2998 15.9749 47.4043 15.5317C48.5089 15.0887 49.7238 14.9745 50.8951 15.2036C52.0664 15.4327 53.1414 15.9949 53.9838 16.8188C54.8262 17.6429 55.3982 18.6914 55.6271 19.8319C55.856 20.9723 55.7316 22.1531 55.2696 23.2247C54.8076 24.2962 54.029 25.2103 53.0322 25.851C52.0355 26.4917 50.8656 26.8301 49.6708 26.8235C48.8784 26.8296 48.0926 26.6817 47.3598 26.3884C46.6269 26.0953 45.9615 25.6628 45.4027 25.1163C44.8439 24.5698 44.4031 23.9202 44.1058 23.2058C43.8086 22.4914 43.661 21.7265 43.6717 20.9559ZM52.3141 20.9559C52.3005 20.455 52.1354 19.969 51.8393 19.559C51.5433 19.1488 51.1295 18.8326 50.6496 18.65C50.1698 18.4673 49.6453 18.4263 49.1417 18.5322C48.638 18.6379 48.1776 18.8857 47.818 19.2447C47.4584 19.6035 47.2155 20.0575 47.1199 20.55C47.0243 21.0424 47.08 21.5513 47.2802 22.013C47.4804 22.4747 47.8161 22.8689 48.2455 23.1459C48.6747 23.4231 49.1785 23.571 49.6938 23.5712C50.0446 23.5779 50.3931 23.5141 50.7174 23.3838C51.0417 23.2536 51.3349 23.0596 51.5787 22.8142C51.8224 22.5688 52.0115 22.277 52.1341 21.9573C52.2567 21.6376 52.3102 21.2967 52.2911 20.9559H52.3141Z" fill="#02007C"/>
<path d="M69.3116 15.4235V25.9406C69.3116 29.6511 66.3235 31.227 63.301 31.227C62.2348 31.3121 61.1654 31.1061 60.2133 30.6322C59.261 30.1583 58.4636 29.4353 57.911 28.5447L60.8186 26.9129C61.0542 27.3749 61.4289 27.7561 61.893 28.0056C62.3571 28.2552 62.8883 28.3614 63.4159 28.31C63.752 28.3502 64.0931 28.3178 64.4148 28.215C64.7366 28.112 65.0309 27.9414 65.2769 27.7149C65.5229 27.4885 65.7144 27.2121 65.8377 26.9053C65.961 26.5986 66.0131 26.2691 65.9902 25.9406V24.9235C65.589 25.3966 65.0799 25.7721 64.5034 26.0205C63.9269 26.2688 63.2988 26.383 62.6689 26.3541C61.1449 26.3541 59.6833 25.7653 58.6057 24.7173C57.528 23.6694 56.9226 22.248 56.9226 20.7659C56.9226 19.2837 57.528 17.8624 58.6057 16.8144C59.6833 15.7664 61.1449 15.1776 62.6689 15.1776C63.2988 15.1487 63.9269 15.2629 64.5034 15.5112C65.0799 15.7596 65.589 16.1351 65.9902 16.6082V15.4906L69.3116 15.4235ZM65.9902 20.7323C66.0131 20.1976 65.871 19.6684 65.5822 19.2129C65.2934 18.7573 64.8712 18.3962 64.3695 18.1759C63.868 17.9556 63.3103 17.8863 62.7678 17.9769C62.2255 18.0674 61.7233 18.3136 61.326 18.6839C60.9287 19.0542 60.6544 19.5316 60.5383 20.0548C60.4222 20.578 60.4697 21.1228 60.6746 21.6195C60.8796 22.1162 61.2327 22.5419 61.6883 22.8419C62.1441 23.1419 62.6817 23.3025 63.232 23.3029C63.5912 23.3281 63.9517 23.2797 64.2902 23.161C64.6289 23.0422 64.9383 22.8556 65.1982 22.6133C65.4581 22.3711 65.6629 22.0785 65.7993 21.7545C65.9357 21.4305 66.0008 21.0823 65.9902 20.7323Z" fill="#02007C"/>
<path d="M71.2538 20.9559C71.2538 19.7949 71.608 18.66 72.2715 17.6948C72.9349 16.7296 73.8779 15.9775 74.9811 15.5338C76.0842 15.09 77.298 14.9744 78.4687 15.2018C79.6395 15.4291 80.7145 15.989 81.5579 16.8107C82.4012 17.6325 82.9749 18.6791 83.2064 19.818C83.438 20.957 83.3168 22.1371 82.8584 23.209C82.4 24.2811 81.6248 25.1967 80.6312 25.8401C79.6374 26.4835 78.4697 26.8257 77.2759 26.8235C76.482 26.831 75.6944 26.6843 74.9596 26.3919C74.2248 26.0995 73.5573 25.6674 72.9964 25.1209C72.4355 24.5744 71.9924 23.9244 71.6932 23.2093C71.394 22.4941 71.2446 21.7279 71.2538 20.9559ZM79.8962 20.9559C79.8826 20.4545 79.7172 19.9681 79.4206 19.5577C79.1241 19.1474 78.7096 18.8312 78.2291 18.6489C77.7486 18.4666 77.2235 18.4263 76.7196 18.533C76.2156 18.6397 75.7552 18.8887 75.3961 19.2487C75.0369 19.6087 74.795 20.0638 74.7008 20.5569C74.6064 21.05 74.6638 21.5592 74.8657 22.0206C75.0676 22.4822 75.4052 22.8755 75.836 23.1514C76.2667 23.4271 76.7716 23.5732 77.2874 23.5712C77.6383 23.5779 77.9867 23.514 78.311 23.3837C78.6354 23.2535 78.9285 23.0596 79.1723 22.8142C79.416 22.5687 79.6051 22.2769 79.7277 21.9573C79.8503 21.6375 79.9038 21.2966 79.8847 20.9559H79.8962Z" fill="#02007C"/>
<path d="M84.8953 12.4618C84.8953 12.0684 85.0152 11.6837 85.24 11.3565C85.4648 11.0293 85.7843 10.7744 86.1581 10.6238C86.5319 10.4732 86.9432 10.4338 87.3401 10.5106C87.7368 10.5873 88.1013 10.7768 88.3875 11.055C88.6735 11.3333 88.8683 11.6878 88.9473 12.0736C89.0262 12.4595 88.9857 12.8595 88.8309 13.2231C88.6761 13.5866 88.4138 13.8973 88.0774 14.1159C87.741 14.3345 87.3456 14.4512 86.9409 14.4512C86.4002 14.4454 85.8834 14.2339 85.501 13.8621C85.1187 13.4902 84.9012 12.9876 84.8953 12.4618ZM85.2285 15.4235H88.6763V26.4882H85.2285V15.4235Z" fill="#02007C"/>
<path d="M103.433 20.9559C103.471 21.6917 103.36 22.4278 103.105 23.1217C102.85 23.8155 102.457 24.4534 101.947 24.9987C101.438 25.5442 100.822 25.9861 100.136 26.2992C99.4506 26.6124 98.7078 26.7906 97.9509 26.8235C97.3086 26.8651 96.6649 26.7651 96.068 26.5309C95.471 26.2967 94.9361 25.9344 94.5032 25.4712V30.9365H91.0554V15.4235H94.5032V16.4629C94.9367 16.001 95.472 15.6405 96.069 15.4082C96.6661 15.1759 97.3094 15.0779 97.9509 15.1218C98.7049 15.1547 99.4446 15.3319 100.128 15.6429C100.812 15.954 101.425 16.393 101.934 16.9347C102.443 17.4764 102.838 18.1103 103.095 18.8004C103.352 19.4903 103.467 20.2227 103.433 20.9559ZM99.9851 20.9559C99.9716 20.4367 99.8007 19.9331 99.494 19.5081C99.1874 19.083 98.7585 18.7553 98.2612 18.5663C97.764 18.3772 97.2204 18.3352 96.6985 18.4453C96.1767 18.5554 95.7 18.8129 95.328 19.1854C94.956 19.5579 94.7053 20.0289 94.6075 20.5394C94.5096 21.0499 94.5688 21.5771 94.7777 22.055C94.9867 22.5328 95.3359 22.94 95.7818 23.2257C96.2277 23.5114 96.7504 23.6626 97.2844 23.6606C97.6501 23.6757 98.0149 23.6154 98.355 23.4838C98.6952 23.3521 99.0029 23.1521 99.2579 22.8967C99.5129 22.6413 99.7094 22.3363 99.8348 22.0019C99.9602 21.6674 100.011 21.311 99.9851 20.9559Z" fill="#02007C"/>
<path d="M113.925 23.1688C113.925 25.717 111.627 26.8012 109.191 26.8012C108.197 26.8881 107.199 26.6832 106.326 26.2131C105.454 25.7429 104.746 25.0289 104.295 24.1635L107.26 22.5317C107.377 22.9305 107.632 23.278 107.981 23.5161C108.331 23.7541 108.753 23.8682 109.179 23.8394C109.995 23.8394 110.409 23.5935 110.409 23.1465C110.409 21.9282 104.812 22.5765 104.812 18.7429C104.812 16.3288 106.903 15.1217 109.271 15.1217C110.171 15.0825 111.065 15.2811 111.858 15.6963C112.651 16.1115 113.314 16.7279 113.776 17.48L110.811 19C110.68 18.7116 110.466 18.4664 110.195 18.2939C109.923 18.1213 109.607 18.0289 109.282 18.0276C108.685 18.0276 108.329 18.2512 108.329 18.6423C108.329 19.9165 113.925 19.0782 113.925 23.1688Z" fill="#02007C"/>
<path d="M126.418 15.4235V26.4882H122.97V25.4488C122.578 25.909 122.081 26.273 121.519 26.5118C120.956 26.7507 120.343 26.8574 119.729 26.8235C117.431 26.8235 115.466 25.2253 115.466 22.2412V15.4235H118.913V21.7382C118.886 22.0022 118.918 22.2688 119.008 22.5196C119.097 22.7703 119.241 22.9992 119.429 23.1905C119.619 23.3817 119.849 23.5308 120.103 23.6275C120.357 23.7241 120.629 23.7659 120.902 23.75C122.143 23.75 123.016 23.0347 123.016 21.5147V15.4235H126.418Z" fill="#02007C"/>
<path d="M145.955 19.693V26.4883H142.507V19.9836C142.507 18.8659 141.967 18.173 140.876 18.173C139.784 18.173 139.094 18.9441 139.094 20.2518V26.4883H135.646V19.9836C135.646 18.8659 135.106 18.173 134.015 18.173C132.923 18.173 132.233 18.9441 132.233 20.2518V26.4883H128.785V15.4236H132.233V16.4406C132.591 15.9913 133.056 15.6355 133.59 15.4052C134.124 15.175 134.709 15.0775 135.29 15.1218C135.873 15.0922 136.454 15.2106 136.976 15.4654C137.498 15.7201 137.943 16.1024 138.267 16.5747C138.646 16.0812 139.147 15.6891 139.724 15.4351C140.3 15.1809 140.934 15.0732 141.565 15.1218C144.254 15.1218 145.955 16.9324 145.955 19.693Z" fill="#02007C"/>
<path d="M148.851 15.3565C150.248 15.3565 151.38 14.2556 151.38 12.8977C151.38 11.5397 150.248 10.4388 148.851 10.4388C147.455 10.4388 146.323 11.5397 146.323 12.8977C146.323 14.2556 147.455 15.3565 148.851 15.3565Z" fill="#02007C"/>
</svg>
