<svg width="12" height="15" viewBox="0 0 13 15" fill="none" xmlns="http://www.w3.org/2000/svg">
<path d="M4.0499 1.04552L3.85704 1.42855H1.28561C0.811502 1.42855 0.428467 1.81159 0.428467 2.2857C0.428467 2.7598 0.811502 3.14284 1.28561 3.14284H11.5713C12.0454 3.14284 12.4285 2.7598 12.4285 2.2857C12.4285 1.81159 12.0454 1.42855 11.5713 1.42855H8.9999L8.80704 1.04552C8.6624 0.753554 8.36507 0.571411 8.04097 0.571411H4.81597C4.49186 0.571411 4.19454 0.753554 4.0499 1.04552ZM11.5713 3.99998H1.28561L1.85347 13.0803C1.89632 13.758 2.45882 14.2857 3.1365 14.2857H9.72043C10.3981 14.2857 10.9606 13.758 11.0035 13.0803L11.5713 3.99998Z" fill="#DE2C28"/>
</svg>
