<svg width="13" height="15" viewBox="0 0 15 15" fill="none" xmlns="http://www.w3.org/2000/svg">
<path d="M10.2868 1.08835L8.99034 2.38478L12.4725 5.86692L13.7689 4.5705C14.4386 3.90085 14.4386 2.81603 13.7689 2.14639L12.7136 1.08835C12.0439 0.41871 10.9591 0.41871 10.2894 1.08835H10.2868ZM8.38498 2.99014L2.14123 9.23657C1.86266 9.51514 1.65909 9.86067 1.54659 10.2384L0.598377 13.4607C0.531413 13.6884 0.59302 13.9321 0.759092 14.0982C0.925163 14.2642 1.16891 14.3259 1.39391 14.2616L4.61623 13.3134C4.99391 13.2009 5.33945 12.9973 5.61802 12.7187L11.8671 6.47228L8.38498 2.99014Z" fill="#69A333"/>
</svg>
