<svg width="18" height="18" viewBox="0 0 18 18" fill="none" xmlns="http://www.w3.org/2000/svg">
<path fill-rule="evenodd" clip-rule="evenodd" d="M10.5158 2.88838C10.0922 2.52969 9.55505 2.33285 8.99996 2.33285C8.44487 2.33285 7.90776 2.52969 7.48413 2.88838L2.99579 6.60005C2.58746 6.93838 2.33329 7.47255 2.33329 8.05505V13.8425C2.33329 14.8984 3.12663 15.6667 3.99996 15.6667H5.66663V12.9567C5.66663 11.0775 7.11163 9.46505 8.99996 9.46505C10.8883 9.46505 12.3333 11.0775 12.3333 12.9567V15.6667H14C14.8733 15.6667 15.6666 14.8984 15.6666 13.8417V8.05505C15.6666 7.47255 15.4133 6.93838 15.0041 6.60005L10.5158 2.88838ZM11.5775 1.60421L16.0658 5.31505C16.8741 5.98421 17.3333 6.99755 17.3333 8.05505V13.8425C17.3333 15.7217 15.8883 17.3334 14 17.3334H12.3333C11.8913 17.3334 11.4673 17.1578 11.1548 16.8452C10.8422 16.5327 10.6666 16.1087 10.6666 15.6667V12.9567C10.6666 11.9 9.87329 11.1317 8.99996 11.1317C8.12663 11.1317 7.33329 11.9 7.33329 12.9567V15.6667C7.33329 16.1087 7.1577 16.5327 6.84514 16.8452C6.53258 17.1578 6.10865 17.3334 5.66663 17.3334H3.99996C2.11163 17.3334 0.666626 15.7217 0.666626 13.8417V8.05505C0.666626 6.99755 1.12496 5.98421 1.93413 5.31505L6.42246 1.60421C7.14479 0.998568 8.05732 0.666626 8.99996 0.666626C9.9426 0.666626 10.8551 0.998568 11.5775 1.60421Z" fill="#656576"/>
</svg>
