<svg width="25" height="25" viewBox="0 0 25 25" fill="none" xmlns="http://www.w3.org/2000/svg">
<path d="M0 12.5C0 5.59644 5.59644 0 12.5 0C19.4036 0 25 5.59644 25 12.5C25 19.4036 19.4036 25 12.5 25C5.59644 25 0 19.4036 0 12.5Z" fill="#DEDDFF"/>
<path d="M15.5468 10.1153C15.5468 10.4769 15.2502 10.7694 14.8887 10.7694C14.5312 10.7694 14.2387 10.4769 14.2387 10.1153C14.2387 9.75375 14.5312 9.46125 14.8887 9.46125C15.2502 9.46125 15.5468 9.75375 15.5468 10.1153ZM17.8746 10.81C17.8746 12.8453 16.2212 14.5028 14.1859 14.5028C13.8893 14.5028 13.6009 14.4622 13.3201 14.3931V14.7262C13.3201 14.9497 13.1377 15.1325 12.9139 15.1325H11.7398V16.1359C11.7398 16.3594 11.557 16.5422 11.3336 16.5422H10.3992V17.4766C10.3992 17.7 10.2205 17.8828 9.99296 17.8828H7.53149C7.30399 17.8828 7.12524 17.7 7.12524 17.4766V15.945C7.12524 15.8394 7.16628 15.7378 7.23899 15.6606L10.7332 12.11C10.5737 11.6952 10.4923 11.2544 10.4931 10.81C10.4931 8.77469 12.1506 7.11719 14.1863 7.11719C16.2212 7.11719 17.8746 8.77469 17.8746 10.81ZM16.3593 10.1153C16.3593 9.30687 15.7012 8.64875 14.8887 8.64875C14.0802 8.64875 13.4262 9.30687 13.4262 10.1153C13.4262 10.9238 14.0798 11.5819 14.8887 11.5819C15.7012 11.5819 16.3593 10.9238 16.3593 10.1153Z" fill="#02007C"/>
</svg>
