<svg width="11" height="11" viewBox="0 0 11 11" fill="none" xmlns="http://www.w3.org/2000/svg">
<path d="M8.54681 3.11531C8.54681 3.47688 8.25024 3.76937 7.88868 3.76937C7.53118 3.76937 7.23868 3.47688 7.23868 3.11531C7.23868 2.75375 7.53118 2.46125 7.88868 2.46125C8.25024 2.46125 8.54681 2.75375 8.54681 3.11531ZM10.8746 3.81C10.8746 5.84531 9.22118 7.50281 7.18587 7.50281C6.88931 7.50281 6.60087 7.46219 6.32015 7.39313V7.72625C6.32015 7.94969 6.13774 8.1325 5.9139 8.1325H4.73984V9.13594C4.73984 9.35938 4.55702 9.54219 4.33359 9.54219H3.39921V10.4766C3.39921 10.7 3.22046 10.8828 2.99296 10.8828H0.531494C0.303994 10.8828 0.125244 10.7 0.125244 10.4766V8.945C0.125244 8.83937 0.166275 8.73781 0.238994 8.66063L3.73315 5.11C3.57373 4.69516 3.49233 4.25442 3.49306 3.81C3.49306 1.77469 5.15056 0.117188 7.18627 0.117188C9.22118 0.117188 10.8746 1.77469 10.8746 3.81ZM9.35931 3.11531C9.35931 2.30687 8.70118 1.64875 7.88868 1.64875C7.08024 1.64875 6.42618 2.30687 6.42618 3.11531C6.42618 3.92375 7.07984 4.58187 7.88868 4.58187C8.70118 4.58187 9.35931 3.92375 9.35931 3.11531Z" fill="#02007C"/>
</svg>
