<svg width="12" height="16" viewBox="0 0 12 16" fill="none" xmlns="http://www.w3.org/2000/svg">
<path fill-rule="evenodd" clip-rule="evenodd" d="M6.76749 1.10535C6.76749 0.90181 6.68663 0.706602 6.54271 0.562675C6.39878 0.418748 6.20357 0.337891 6.00003 0.337891C5.79648 0.337891 5.60128 0.418748 5.45735 0.562675C5.31342 0.706602 5.23257 0.90181 5.23257 1.10535V1.68095H4.80509C3.98239 1.6809 3.1906 1.99438 2.5909 2.55757C1.9912 3.12077 1.62868 3.89135 1.57714 4.71243L1.40753 7.42464C1.34285 8.45876 0.995633 9.4553 0.403689 10.3057C0.281381 10.4815 0.206649 10.686 0.18676 10.8992C0.166871 11.1124 0.202503 11.3272 0.290191 11.5226C0.377878 11.7179 0.514636 11.8873 0.687165 12.0142C0.859694 12.1411 1.06212 12.2211 1.27476 12.2466L3.88951 12.5597V13.3848C3.88951 13.9445 4.11186 14.4813 4.50766 14.8771C4.90346 15.2729 5.44028 15.4953 6.00003 15.4953C6.55977 15.4953 7.09659 15.2729 7.49239 14.8771C7.88819 14.4813 8.11055 13.9445 8.11055 13.3848V12.5597L10.7253 12.2458C10.9378 12.2203 11.1401 12.1402 11.3125 12.0134C11.4849 11.8866 11.6216 11.7173 11.7093 11.522C11.797 11.3268 11.8326 11.1121 11.8129 10.899C11.7931 10.6859 11.7185 10.4815 11.5964 10.3057C11.0044 9.45531 10.6572 8.45877 10.5925 7.42464L10.4229 4.7132C10.3716 3.89198 10.0091 3.12121 9.40941 2.55785C8.80969 1.9945 8.01779 1.68091 7.19497 1.68095H6.76749V1.10535ZM4.80509 2.83214C4.27521 2.83208 3.76523 3.03397 3.37897 3.3967C2.99272 3.75943 2.75922 4.25573 2.72603 4.78457L2.55719 7.49678C2.47917 8.74083 2.06135 9.93962 1.3492 10.9626C1.34035 10.9754 1.33494 10.9901 1.3335 11.0056C1.33205 11.021 1.33462 11.0365 1.34096 11.0507C1.34729 11.0648 1.35717 11.0771 1.36965 11.0862C1.38212 11.0954 1.39676 11.1012 1.41214 11.1031L4.28014 11.4477C5.4229 11.5843 6.57716 11.5843 7.71991 11.4477L10.5879 11.1031C10.6033 11.1012 10.6179 11.0954 10.6304 11.0862C10.6429 11.0771 10.6528 11.0648 10.6591 11.0507C10.6654 11.0365 10.668 11.021 10.6666 11.0056C10.6651 10.9901 10.6597 10.9754 10.6509 10.9626C9.93898 9.93954 9.52142 8.74075 9.44363 7.49678L9.27402 4.78457C9.24083 4.25573 9.00734 3.75943 8.62108 3.3967C8.23483 3.03397 7.72484 2.83208 7.19497 2.83214H4.80509ZM6.00003 14.3441C5.47048 14.3441 5.0407 13.9143 5.0407 13.3848V12.8092H6.95936V13.3848C6.95936 13.9143 6.52958 14.3441 6.00003 14.3441Z" fill="#02007C"/>
</svg>
