<svg width="15" height="15" viewBox="0 0 15 15" fill="none" xmlns="http://www.w3.org/2000/svg">
<g clip-path="url(#clip0_2795_6785)">
<path fill-rule="evenodd" clip-rule="evenodd" d="M1.8477 9.97903C2.84782 10.979 4.18139 11.5752 5.59346 11.6538C7.00553 11.7323 8.39702 11.2877 9.50191 10.4049L13.8937 14.7968C13.9522 14.8595 14.0228 14.9099 14.1011 14.9448C14.1795 14.9797 14.2641 14.9985 14.3499 15C14.4356 15.0015 14.5208 14.9857 14.6004 14.9536C14.6799 14.9215 14.7522 14.8736 14.8129 14.813C14.8735 14.7523 14.9214 14.6801 14.9535 14.6005C14.9856 14.521 15.0014 14.4358 14.9999 14.35C14.9984 14.2642 14.9796 14.1796 14.9447 14.1012C14.9098 14.0229 14.8594 13.9524 14.7966 13.8939L10.4057 9.50202C11.0987 8.63476 11.5258 7.58543 11.6356 6.48072C11.7453 5.37601 11.533 4.26315 11.0241 3.27649C10.5153 2.28982 9.7317 1.47154 8.76801 0.920432C7.80432 0.369319 6.7017 0.108936 5.59327 0.170718C4.48485 0.2325 3.418 0.613804 2.52152 1.2686C1.62505 1.92339 0.93727 2.82368 0.541225 3.86078C0.145179 4.89788 0.0577975 6.02745 0.289628 7.11312C0.521459 8.19879 1.06259 9.19415 1.8477 9.97903ZM2.7506 2.75071C1.91134 3.58884 1.43941 4.72603 1.43861 5.91211C1.43781 7.0982 1.90821 8.23602 2.74634 9.07527C3.58446 9.91453 4.72165 10.3865 5.90774 10.3873C7.09382 10.3881 8.23164 9.91766 9.0709 9.07953L9.07516 9.07527L9.07856 9.07102C9.89266 8.22711 10.3427 7.09722 10.3318 5.9247C10.3209 4.75217 9.84996 3.63084 9.02032 2.80221C8.19069 1.97357 7.06878 1.50395 5.89625 1.49448C4.72371 1.485 3.59436 1.93644 2.75145 2.75156L2.7506 2.75071Z" fill="#7E7E97"/>
</g>
<defs>
<clipPath id="clip0_2795_6785">
<rect width="15" height="15" fill="white"/>
</clipPath>
</defs>
</svg>
